<svg xmlns="http://www.w3.org/2000/svg" width="1860" height="1860" fill="none">
<style>
    #rotation {       
       animation: rotation 3s ease normal 0.3s both;
    }

    @keyframes rotation {
        0% {    
            transform-origin: center center;                  
            transform: rotate(0);
        }
        100% {            
            transform-origin: center center;
            transform: rotate(720deg);
        }
    }  

    #scale {            
       animation: scale 1s linear normal 0.3s both;          
    }    

    @keyframes scale {
        0% {                      
           opacity: 0; 
           scale: 1.2;          
        }
        100% {
           opacity: 1;
           scale: 1;
        }
    }   

    @keyframes fadeIn {
        0% {                      
           opacity: 0;                   
        }
        100% {
           opacity: 1;           
        }
    }

    #fadeIn {            
       animation: fadeIn 0.3s linear normal both;          
    }    

</style>
  <g fill="#FFF" opacity=".75">
    <g id="scale">
    <g id="rotation">
      <path d="M321.5 366.5c-173.8 223-154.3 538.7 6.5 781.2v1.6s0-1.6-1.6-1.6C307 864.5 428.8 503 719.6 337a752 752 0 0 1 521.6-86.3 753.2 753.2 0 0 1 294 127c-178.7-221.4-456.5-309.3-731-265.3-179 27.6-367.4 105.9-482.8 254Z"/>
      <path d="M732.6 1753c279.5 39 542.7-135 672.7-397v-1.6s0 1.6-1.6 1.6c-235.6 157.9-609.3 234.4-897 65A759.6 759.6 0 0 1 172 1012.7a732 732 0 0 1-37.4-319c-102.4 265.3-39 550 134.8 766.6C385 1601.8 545.8 1727 732.5 1753Z"/>
      <path  d="M1730.2 698.5C1621.4 438 1337 298 1047.8 320.9c256.7 122 511.8 406.9 511.8 740.5a772.4 772.4 0 0 1-180.3 498 748.9 748.9 0 0 1-255.1 193.7c279.5-47.2 492.3-247.3 589.8-507.8 63.4-169.2 89.4-372.7 16.2-546.8z"/>
    </g>
    </g>    
    <g id="fadeIn"> 
      <path d="m828.5 890.5 8-13c-42.1-39-94.1-88-118.5-115.5-45.5-50.5-42.3-117.2-42.3-117.2 0-75 65-135.1 143-133.5 48.8 0 91 24.4 115.4 60.2 26-35.8 68.2-58.5 117-57 78 1.7 139.7 62 139.7 136.8 0 0 3.3 66.7-44 115.5-26 26-78 75-121.7 112.3l9.7 18 6.5 11.3c55.3-18 123.5-39 159.3-47.2 66.6-14.6 121.8 22.8 121.8 22.8 65 37.5 84.5 123.7 45.5 190.5A145.3 145.3 0 0 1 1259 1146a142.7 142.7 0 0 1-8.2 130.2c-39 66.7-123.5 91-188.5 53.7 0 0-60-31-79.6-96-9.7-36-26-105.8-37.3-161.2H913c-13 57-29.3 125.3-40.7 161.2-21 65-81.2 94.4-81.2 94.4-65 35.8-149.5 11.3-186.8-57a137.5 137.5 0 0 1-5-130.2c-43.8-5-84.4-31-107.2-73.3-37.3-68.3-14.6-153 50.4-188.8 0 0 56.9-35.8 121.9-19.5 35.7 8.2 104 31 157.6 50.5z"/>
    </g>
  </g>
</svg>