<svg xmlns="http://www.w3.org/2000/svg">
	<symbol id="AR" viewBox="0 0 640 480">
		<path fill="#74acdf" d="M0 0h640v480H0z" />
		<path fill="#fff" d="M0 160h640v160H0z" />
		<path
			id="prefix__a"
			fill="#f6b40e"
			stroke="#85340a"
			stroke-width="1.1"
			d="m317 241 28 60c0-10-7-18-9-28l-13-34m-1 23c0 8 7 16 5 25 1 4 3 14 6 15 0-9-4-17-3-26-1-4-3-9-2-14"
		/>
		<path id="prefix__b" fill="#85340a" d="M324 263c1 5 3 16 5 16-1-5-4-10-3-15m-8-23 19 41-15-43" style="stroke-width: 0.96" />
		<path
			fill="#f6b40e"
			stroke="#85340a"
			stroke-width="1.1"
			d="m319 237-60 28c9 0 17-7 25-8l37-14m-23-1c-8 0-16 7-25 5-4 1-14 3-15 6 9 0 17-4 26-3 4-1 9-3 14-2"
		/>
		<path fill="#85340a" d="M297 244c-5 1-16 3-16 5 5-1 10-4 15-3m23-8-41 19 43-15" style="stroke-width: 0.96" />
		<path
			fill="#f6b40e"
			stroke="#85340a"
			stroke-width="1.1"
			d="m323 239-28-60c0 9 7 17 8 25l14 37m1-23c0-8-7-16-5-25-1-4-3-14-6-15 0 9 4 17 3 26 1 4 3 9 2 14"
		/>
		<path fill="#85340a" d="M316 217c-1-5-3-16-5-16 1 5 4 10 3 15m8 23-19-41 15 43" style="stroke-width: 0.96" />
		<path
			fill="#f6b40e"
			stroke="#85340a"
			stroke-width="1.1"
			d="m321 243 60-28c-9 0-17 7-25 8l-37 14m23 1c8 0 16-7 25-5 4-1 14-3 15-6-9 0-17 4-26 3-4 1-9 3-14 2"
		/>
		<path fill="#85340a" d="M343 236c5-1 16-3 16-5-5 1-10 4-15 3m-23 8 41-19-43 15" style="stroke-width: 0.96" />
		<circle cx="320" cy="240" r="26.7" fill="#f6b40e" stroke="#85340a" stroke-width="1.4" />
	</symbol>
	<symbol id="AU" viewBox="0 0 640 480">
		<path fill="#00008B" d="M0 0h640v480H0z" />
		<path fill="#fff" d="m38 0 122 91L281 0h39v31l-120 90 120 89v30h-40l-120-89-119 89H0v-30l120-89L0 32V0z" />
		<path fill="red" d="m212 141 108 79v20l-135-99zm-92 10 3 17-96 72H0zM320 0v2L196 96l1-22 98-74zM0 0l120 88H90L0 21z" />
		<path fill="#fff" d="M121 0v240h80V0h-80ZM0 80v80h320V80H0Z" />
		<path fill="red" d="M0 97v48h320V97zM137 0v240h48V0z" />
		<path
			fill="#fff"
			d="m527 397-20 2 2 21-15-15-15 15 2-21-20-2 17-11-11-18 20 7 7-20 7 20 19-7-10 18 17 11Zm-4-118 3-12-10-9 13-2 6-12 5 12 14 2-10 9 3 13-12-7-12 6Zm-104-59-20 2 2 20-15-14-15 14 3-21-20-2 17-11-11-18 20 7 7-19 7 19 19-6-11 17 17 12Zm204-33-21 2 2 21-15-14-15 14 2-21-21-2 18-11-11-18 20 6 7-20 7 20 20-7-11 18 18 12Zm-96-84-21 2 2 21-15-15-15 15 3-21-21-3 18-11-11-17 20 6 7-19 7 20 20-7-11 18 17 11ZM234 386l-46 5 5 46-33-32-33 32 5-46-46-6 39-25-24-39 44 15 15-44 16 44 44-15-25 40 39 25Z"
		/>
	</symbol>
	<symbol id="AT" viewBox="0 0 640 480">
		<g fill-rule="evenodd">
			<path fill="#fff" d="M640 480H0V0h640z" />
			<path fill="#c8102e" d="M640 480H0V320h640zm0-320H0V0h640z" />
		</g>
	</symbol>
	<symbol id="BE" viewBox="0 0 640 480">
		<g fill-rule="evenodd" stroke-width="1pt">
			<path d="M0 0h213v480H0z" />
			<path fill="#ffd90c" d="M213 0h214v480H213z" />
			<path fill="#f31830" d="M427 0h213v480H427z" />
		</g>
	</symbol>
	<symbol id="BR" viewBox="0 0 640 480">
		<path fill="#229e45" fill-rule="evenodd" d="M0 0h640v480H0Z" style="stroke-width: 1pt" />
		<path fill="#f8e509" fill-rule="evenodd" d="m321 436 302-196L320 44 17 241Z" style="stroke-width: 1pt" />
		<path fill="#2b49a3" fill-rule="evenodd" d="M453 240c0 70-57 127-128 127a127 127 0 1 1 128-127Z" style="stroke-width: 1pt" />
		<path
			fill="#ffffef"
			fill-rule="evenodd"
			d="m283 316-4-2-4 2 1-4-3-4h5l2-4 2 4 4 1-3 3m86 26-4-2-4 2 1-5-4-3 5-1 2-4 2 4 4 1-3 3m-36-30-4-2-3 2 1-4-3-3h4l2-4 1 4 4 1-3 2m87-8-3-2-4 2 1-4-2-3h3l2-4 2 4h4l-3 3m-88-22-4-2-4 2 1-5-3-3 5-1 2-4 2 5h4l-3 4m-105-35-4-3-4 2 1-4-3-4h4l2-4 2 4 5 1-3 3m13 57-4-2-4 2 1-5-3-3 4-1 2-4 2 5h5l-4 4m132-68-3-2-4 2 1-4-3-3h4l2-4 2 4h4l-3 3m-7 38-3-1-3 1 1-3-2-2 3-1 1-2 2 3h3l-2 2m-143 51-2-2-3 1 1-3-3-2h3l2-3 1 3 3 1-2 2m200 15-2-1-2 1v-3l-2-1 3-1 1-2 1 2 3 1-2 1"
			style="stroke-width: 1pt"
		/>
		<path fill="#ffffef" fill-rule="evenodd" d="m219 288-2-2-3 1 1-3-3-2h3l2-3 1 3 3 1-2 2" style="stroke-width: 1pt" />
		<path
			fill="#ffffef"
			fill-rule="evenodd"
			d="m219 288-2-2-3 1 1-3-3-2h3l2-3 1 3 3 1-2 2m42 3-2-2-3 1v-3l-2-2h3l2-3 1 3h3l-2 3m-5 17-3-2-2 1v-3l-2-2h3l2-3 1 3h3l-2 2m87-22-3-1-2 1v-3l-2-2 3-1 2-2 1 3h3l-2 2m-26 3-2-1-3 1 1-3-2-2 3-1 1-2 1 3h3l-2 2m-69-6-1-1-2 1v-2l-1-1h2l1-2v2h2l-1 1m168 46-3-2-3 2 1-3-2-3h3l1-3 2 3 3 1-3 2m-20 6-3-2-2 1 1-2-2-2h2l2-3 1 3h2l-2 2m11 2-2-1-3 1 1-2-2-2h2l2-2 1 2h2l-2 2m29-23-2-1-2 1 1-2-2-2h3l1-2 1 2h2l-2 2m-39 42-2-2-3 2 1-3-2-2 3-1 1-2 1 3h3l-2 2m0 14-2-1-2 1v-3l-2-2h3l1-3 1 3h3l-2 2m-19-23-2-1-2 1 1-2-2-2h2l1-2 1 2h2l-1 2m-18 2-2-1-2 1 1-2-2-2h2l1-2 1 2h2l-1 2m-31-25-2-1-2 1 1-2-2-2h2l1-2 1 2 3 1-2 1m4 57-2-1-2 1 1-2-2-1h2l1-2 1 2h2l-2 1m-46-86-4-3-4 2 1-4-3-3 4-1 3-4 2 4 4 1-3 3"
			style="stroke-width: 1pt"
		/>
		<path
			fill="#fff"
			fill-rule="evenodd"
			d="M444 286a125 125 0 0 0 6-20c-68-59-143-90-238-84a125 125 0 0 0-9 21c113-11 196 39 241 83z"
			style="stroke-width: 1pt"
		/>
	</symbol>
	<symbol id="BG" viewBox="0 0 640 480">
		<g fill-rule="evenodd" stroke-width="1pt">
			<path fill="#d62612" d="M0 320h640v160H0z" />
			<path fill="#fff" d="M0 0h640v160H0z" />
			<path fill="#00966e" d="M0 160h640v160H0z" />
		</g>
	</symbol>
	<symbol id="CA" viewBox="0 0 640 480">
		<path fill="#fff" d="M150 0h340v480H150z" />
		<path
			fill="#d52b1e"
			d="M-20 0h170v480H-20zm510 0h170v480H490zM201 232l-13 4 61 54c5 14-2 18-6 25l67-8-1 67h13l-3-67 67 8c-4-9-8-13-4-27l61-51-10-4c-9-7 3-33 5-49 0 0-36 12-38 6l-9-18-33 36c-3 1-5 0-6-3l16-75-24 13c-2 1-4 0-6-2l-22-46-24 48c-2 2-4 2-5 1l-23-13 14 74c-1 3-4 4-7 2l-31-35c-4 6-7 17-12 19-6 3-24-4-36-7 4 15 17 40 9 48z"
		/>
	</symbol>
	<symbol id="CN" viewBox="0 0 640 480">
		<defs><path id="prefix__a" fill="#ff0" d="m-1 1 1-2 1 2-2-1h2z" /></defs>
		<path fill="#ee1c25" d="M0 0h640v480H0z" />
	</symbol>
	<symbol id="HR" viewBox="0 0 640 480">
		<path fill="#171796" d="M0 0h640v480H0z" />
		<path fill="#fff" d="M0 0h640v320H0z" />
		<path fill="red" d="M0 0h640v160H0zm320 364c51 0 93-42 93-93V160H227v111c0 51 42 93 93 93z" />
		<path fill="#fff" d="M320 363a92 92 0 0 0 92-92V162H229v109a92 92 0 0 0 91 92z" />
		<path
			fill="red"
			d="M267 165h-35v39h35zm0 78h35v-39h-35zm-35 28 1 10h34v-38h-35v28zm106-28h-36v38h36zm0 77h35v-39h-35zm35 21a89 89 0 0 0 20-21h-20v21zm-106-21h35v-39h-35zm-20 0a89 89 0 0 0 20 21v-21h-20zm79 39 12-2v-37h-36v37a87 87 0 0 0 12 2h12zm81-78 1-10v-28h-35v38h34zm-69-38h35v-39h-35zm0-78h-36v39h36zm70 39v-39h-35v39z"
		/>
		<path fill="#fff" d="m410 159 22-50-17-26-27 10-20-22-25 14-23-18-23 18-25-15-20 23-27-11-17 27 22 50a218 218 0 0 1 90-19c32 0 63 6 90 19z" />
		<path fill="#0093dd" d="m253 95-27-10-16 24 6 14 15 34a220 220 0 0 1 35-12l-13-50z" />
		<path fill="#171796" d="m298 87-26-14-19 22 13 50a220 220 0 0 1 36-6l-4-52z" />
		<path fill="red" d="M263 132a232 232 0 0 1 38-6l-1-13a246 246 0 0 0-41 7l4 12zm-7-25a258 258 0 0 1 43-7l-2-13a271 271 0 0 0-44 8l3 12z" />
		<path fill="#0093dd" d="m343 87-23-18-22 18 4 52a222 222 0 0 1 37 0l4-52z" />
		<path fill="#171796" d="m387 95-19-22-25 14-5 52a220 220 0 0 1 37 6l12-50z" />
		<path
			d="M365 122v-1 1zm2 4a4 4 0 0 1-1 1l1-1zm1-2v1-1zm0 0a1 1 0 0 1-1 1 1 1 0 0 0 0-1h1zm1-1h-1a1 1 0 0 1 1 0zm1 0v1c-1 0 0 0 0 0v-1zm-1-6 1 1a1 1 0 0 0 0-1 2 2 0 0 1 0 1v1l-1-2zm0 1zm-1 1a6 6 0 0 1 1 2v-1a1 1 0 0 0 0 1 5 5 0 0 0 0-1 6 6 0 0 0-1-1zm1 1a4 4 0 0 1 1 1v-1a4 4 0 0 0-1 0zm1 0a2 2 0 0 1 0 1l1 1a3 3 0 0 1-1-1 1 1 0 0 0 0-1zm1-2v1-1zm-1-3v1c1 0 1 0 0 0v-1zm1-2v1a1 1 0 0 0-1 1 1 1 0 0 1 1-1v-1zm-2 0 1 1h-1v2l-1 1a4 4 0 0 0 0-2 4 4 0 0 1 0 2 2 2 0 0 0 1-1 4 4 0 0 0 0-2h1l-1-1zm5-1zm-1 0zm-2 0v1a1 1 0 0 0 0-1zm-6 1zm1-1v1-1zm2 2zm1-2zm-5 0a1 1 0 0 0 0 1v1-1a1 1 0 0 1-1 0 1 1 0 0 1 0-1zm2 2v2l1 1a3 3 0 0 1 0-1v-2a2 2 0 0 1 0 1 2 2 0 0 0 0 1v1l-1-1a1 1 0 0 1 0-1v-1zm-1 1v1a3 3 0 0 1-1 0h2a4 4 0 0 1-1 0 25 25 0 0 1 0 1v-1l-1 1 1-1v-1zm-1 0z"
		/>
		<path fill="#0093dd" d="m409 157 21-47-15-25-28 10-13 50a219 219 0 0 1 35 11z" />
		<path fill="#fff" d="M383 113a252 252 0 0 1 39 14l-8 18a232 232 0 0 0-36-13z" />
		<path fill="red" d="m415 142 6-12a249 249 0 0 0-39-14l-3 13a236 236 0 0 1 37 13h-1z" />
	</symbol>
	<symbol id="CY" viewBox="0 0 640 480">
		<path fill="#fff" d="M0 0h640v480H0z" />
		<path
			id="prefix__a"
			fill="#435125"
			d="M308 399a1 1 0 0 1 0-1l-2-1-4-4-5-7v-1l-6-2-5-2 2-2 9 3 6 1 12 9-4 3a37 37 0 0 0-3 3h1l-1 1zm-43-13a32 32 0 0 1-16-5s1-1 2-2c2-1 5-3 10-3s12 2 19 6a29 29 0 0 1-15 4zm-23-5-3-1a5 5 0 0 1-1-3 12 12 0 0 1 0-3 4 4 0 0 1 1 0c2 0 4 1 4 3l1 3-2 1zm41-5c-14-2-20-7-22-11-3-4-2-8-2-8h2c3 0 13 2 22 19zm-28-3c-6 0-11-1-14-3a8 8 0 0 1-3-3 5 5 0 0 1 0-2 18 18 0 0 1 7-1 27 27 0 0 1 19 8l-10 1zm-29-1c-6 0-15-2-20-7l12-2h1c6 0 11 1 14 3l1 3v1l-8 2zm-20-10a3 3 0 0 1-2-1 5 5 0 0 1-1-2l-1-3a2 2 0 0 1 2-1l2 1a6 6 0 0 1 1 2v3l-1 1zm46-1-2-1a5 5 0 0 1-1-3 12 12 0 0 1-1-3 4 4 0 0 1 2 0c2 0 3 1 4 3v2l-2 1zm-22-1c-13-1-20-4-23-7a15 15 0 0 1-3-5l-1-2h3c5 0 13 2 24 14zm13-2a31 31 0 0 1-19-9 19 19 0 0 1-4-7s1 0 3 0a14 14 0 0 1 1 0c5 0 14 2 19 16zm-52-5a42 42 0 0 1-9-1c-6-1-8-3-9-5a5 5 0 0 1-1-2s4-1 9-1a35 35 0 0 1 7 0 22 22 0 0 1 13 8s-4 1-10 1zm24-8a3 3 0 0 1-3-1 5 5 0 0 1-1-2v-4a4 4 0 0 1 1 0c2 0 4 2 4 3l1 3-2 1zm-18-3a39 39 0 0 1-10-4c-4-2-9-7-10-15h1c2 0 4 0 8 3s8 9 11 16zm12 0a31 31 0 0 1-8-5 49 49 0 0 1-13-18s1-1 2-1h1l8 4c3 4 7 11 10 20zm-30-1c-4 0-6-2-6-3a6 6 0 0 1 0-3 9 9 0 0 1 2 0 8 8 0 0 1 6 3v2l-2 1zm-9-11a51 51 0 0 1-9 0c-3-1-5-4-6-6l-2-5c11 0 16 3 18 6a9 9 0 0 1 3 5s-2 0-4 0zm11-11a43 43 0 0 1-2-3l-3-6v-7l-1-4s7 2 7 8l-1 12zm-8 0a44 44 0 0 1-18-11c-2-2-3-5-3-9v-6a3 3 0 0 1 1 0c1 0 3 0 5 2a40 40 0 0 1 5 4l6 6 3 7a22 22 0 0 1 2 5v1a1 1 0 0 1-1 1z"
		/>
		<path
			fill="#d47600"
			d="m519 76-2 1h-3l-2 1-4 3h-3l-1 2v1h-1l-3 1-3 1-3-1-2 1-3 3-2 1-2-1-1 1-2 1h-2l-1 1-2 2-1 2h-2l-1 2-2 1-1 1-2 1h-2l-1 1h-4l-1 1-1 1h-2l-2 1v-1h-1l-1 1-2-1-1-1h-1v2l-1 1-2 1v1l-2 2-4 4-3 2-4 1-2 2-6 3-10 5h-2l-2 1-5 2-5 1h-1l-6 2h-14l-4 2-6 3-2 2-4 2-3 1v-2l-2 1h-7l-6 2-7 1-3 1h-3l-2 1h-14l-4-1-2 1-3-1-5-1h-2l-2-1-1 1h-1l-2-1h-1l-2 1-1-1h-1l-2-1-2-1-7 1h-2l-7-2h-1l-1 1h-2l-2 1h-3l-2-1-3-1h-4l-5-2-5-4-4-2h-2v1l1 2v7l2 1v2l1 4v4l-1 7v1l-1 4-1 3-3 9v1l-2 1-5 3-3 2h-5l-2-1h-2l-3-2-2-1-4-2v-1h-2l-2-1h-5l-3-1-1-1h-2l-3 1-1 1-1-1h-1l-1 2-1 1h-4l-1 1h-3v-1h-2v3l-2 2-2 1-1 2-3 6-1 3-1 1-2 2-2 1-4 3-3 2h-8l-3-1-3-2-3-2-4-5h-1l-2-1h-1v2h-1v8l4 5 1 2v1l1 1v1l2 4-1 2v1l-1 1v1l3 4 1 2-1 2-1 1-1 1 1 1 1 1 2 2 2 4 1 1 1-1 1 1h1l1 1h1l1 1v4l2 3v3l1 1v2l-1 3 1 1h2l2 1 1 2h2l1 1 5 4h1l1 1 1 1 1-1h2l2 1h2l4 1 1 1 3 2 2 1h1l1 1 2 1 2 1h2l4 2h3l2 1 1 1h1l2-2h1l2 1 1-1 2-1 2-1 5-1 1 1 4-2 2 1 2-1 5 1 1 1 1 2h2l-1 1 2 2 2 3 2 4 1 1v3l-1 1v1h5l2-1h5l1 1 2 1h2v-2l-1-1-2-2-1-2-1-1v-6l1-1v-2l2-1 3-2 3-3 2-2 3-1 7-2 3-1 20 2 1-1v-1l1-1 2-1h1l3 1h1l2-1h1l3-2h2l4-2 3-1 1-1 3-1 2-2 2-1h2l5-1 1-2h2l2-1 1-1 1-2 1-1 1-1h5l4 1 1-1 1-4h1l3-5v-3l1-2v-7l2-4 2-2 2-2 2-1h14l6 1 2 1 2 1 2 3h1l1 1h2l2-1 1-1 2-1v-1l1-1v-1l4-1h4l1-1 1-1h1l3 1h6l2 1h1l5 3h2l1 1 1-1v-1h-2l-1-3 1-1-2-3-1-1v-1l-4-6-5-4-2-1-3-3-2-3-1-1-1-2-2-2-1-2-4-4v-1l-1-1h-2l1-1h1v-1l-2-5v-1l2-7v-1l2-5 2-1 1-3 2-2 1-2 2-1h2l2-1 4 1h5l2-1h1l1-1 1-4v-2l1-1 4-5 4-3 7-5 3-2 2-1 16-7 4-5 3-2 3-2 5-2 4-3 1-1 1-4h1v-2h1l3-3 12-6h2l1-1 4-1h1l1-2v-3l1-1v-2l1-1 1-1v-1z"
		/>
	</symbol>
	<symbol id="CZ" viewBox="0 0 640 480">
		<path fill="#fff" d="M0 0h640v240H0z" />
		<path fill="#d7141a" d="M0 240h640v240H0z" />
		<path fill="#11457e" d="M360 240 0 0v480z" />
	</symbol>
	<symbol id="DK" viewBox="0 0 640 480">
		<path fill="#c8102e" d="M0 0h640v480H0z" />
		<path fill="#fff" d="M206 0h68v480h-68z" />
		<path fill="#fff" d="M0 206h640v68H0z" />
	</symbol>
	<symbol id="EE" viewBox="0 0 640 480">
		<g fill-rule="evenodd" stroke-width="1pt">
			<rect width="640" height="477.9" rx="0" ry="0" />
			<rect width="640" height="159.3" y="320.7" fill="#fff" rx="0" ry="0" />
			<path fill="#1791ff" d="M0 0h640v159H0z" />
		</g>
	</symbol>
	<symbol id="FI" viewBox="0 0 640 480">
		<path fill="#fff" d="M0 0h640v480H0z" />
		<path fill="#002f6c" d="M0 175h640v131H0z" />
		<path fill="#002f6c" d="M176 0h130v480H175z" />
	</symbol>
	<symbol id="FR" viewBox="0 0 640 480">
		<g fill-rule="evenodd" stroke-width="1pt">
			<path fill="#fff" d="M0 0h640v480H0z" />
			<path fill="#002654" d="M0 0h213v480H0z" />
			<path fill="#ce1126" d="M427 0h213v480H427z" />
		</g>
	</symbol>
	<symbol id="DE" viewBox="0 0 640 480">
		<path fill="#ffce00" d="M0 320h640v160H0z" />
		<path d="M0 0h640v160H0z" />
		<path fill="#d00" d="M0 160h640v160H0z" />
	</symbol>
	<symbol id="GR" viewBox="0 0 640 480">
		<path fill="#0d5eaf" fill-rule="evenodd" d="M0 0h640v53H0z" />
		<path fill="#fff" fill-rule="evenodd" d="M0 53h640v54H0z" />
		<path fill="#0d5eaf" fill-rule="evenodd" d="M0 107h640v53H0z" />
		<path fill="#fff" fill-rule="evenodd" d="M0 160h640v53H0z" />
		<path fill="#0d5eaf" d="M0 0h267v267H0z" />
		<path fill="#0d5eaf" fill-rule="evenodd" d="M0 213h640v54H0z" />
		<path fill="#fff" fill-rule="evenodd" d="M0 267h640v53H0z" />
		<path fill="#0d5eaf" fill-rule="evenodd" d="M0 320h640v53H0z" />
		<path fill="#fff" fill-rule="evenodd" d="M0 373h640v54H0z" />
		<g fill="#fff" fill-rule="evenodd" stroke-width="1.3">
			<path d="M107 0h53v267h-53z" />
			<path d="M0 107h267v53H0z" />
		</g>
		<path fill="#0d5eaf" d="M0 427h640v53H0z" />
	</symbol>
	<symbol id="HU" viewBox="0 0 640 480">
		<g fill-rule="evenodd">
			<path fill="#fff" d="M640 480H0V0h640z" />
			<path fill="#388d00" d="M640 480H0V320h640z" />
			<path fill="#d43516" d="M640 160H0V0h640z" />
		</g>
	</symbol>
	<symbol id="IN" viewBox="0 0 640 480">
		<path fill="#f93" d="M0 0h640v160H0z" />
		<path fill="#fff" d="M0 160h640v160H0z" />
		<path fill="#128807" d="M0 320h640v160H0z" />
		<g transform="matrix(3.2 0 0 3.2 320 240)">
			<circle r="20" fill="#008" />
			<circle r="17.5" fill="#fff" />
			<circle r="3.5" fill="#008" />
			<g id="prefix__d">
				<g id="prefix__c">
					<g id="prefix__b">
						<g id="prefix__a" fill="#008">
							<circle r=".9" transform="rotate(7.5 -8.8 133.5)" />
							<path d="M0 18 1 7 0 2l-1 5 1 11z" />
						</g>
					</g>
				</g>
			</g>
		</g>
	</symbol>
	<symbol id="ID" viewBox="0 0 640 480">
		<path fill="#e70011" d="M0 0h640v240H0Z" />
		<path fill="#fff" d="M0 240h640v240H0Z" />
	</symbol>
	<symbol id="IE" viewBox="0 0 640 480">
		<g fill-rule="evenodd" stroke-width="1pt">
			<path fill="#fff" d="M0 0h640v480H0z" />
			<path fill="#009A49" d="M0 0h213v480H0z" />
			<path fill="#FF7900" d="M427 0h213v480H427z" />
		</g>
	</symbol>
	<symbol id="IT" viewBox="0 0 640 480">
		<g fill-rule="evenodd" stroke-width="1pt">
			<path fill="#fff" d="M0 0h640v480H0z" />
			<path fill="#009246" d="M0 0h213v480H0z" />
			<path fill="#ce2b37" d="M427 0h213v480H427z" />
		</g>
	</symbol>
	<symbol id="JP" viewBox="0 0 640 480">
		<defs>
			<clipPath id="prefix__a"><path fill-opacity=".7" d="M-88 32h640v480H-88z" /></clipPath>
		</defs>
		<g fill-rule="evenodd" stroke-width="1pt" clip-path="url(#prefix__a)" transform="translate(88 -32)">
			<path fill="#fff" d="M-128 32h720v480h-720z" />
			<circle cx="523.1" cy="344.1" r="194.9" fill="#bc002d" transform="translate(-168.4 8.6) scale(.76554)" />
		</g>
	</symbol>
	<symbol id="MX" xml:space="preserve" viewBox="0 0 640 480">
		<path fill="#ce1126" d="M427 0h213v480H427z" />
		<path fill="#fff" d="M213 0h214v480H213z" />
		<path fill="#006847" d="M0 0h213v480H0z" />
		<path
			d="M-772 521h2c1 1 0 1-1 1l-1-1zm-68-30h2c1 1 0 1-1 1l-1-1zm28-25 1-1c2-2 2-1 1 0l-2 1zm59-9h4l-2 1-2-1zm-117-79 2-2-1 2-2 2 1-2zm209-94-2-3 3 3 3 3-4-3z"
			style="fill: #538a72"
		/>
		<path
			d="M-764 521h11-11zm-22-3v-1 2-1zm-6-5h3l-1 1-2-1zm60 0h3l-2 1c-2 0-2-1-1-1zm-63-9h5l-3 1c-3 0-4-1-2-1zm-74-5c-1-1-1-2 1 0l2 1c0 1-1 1-3-1zm96-12zm-58-16h2c1 1 0 1-1 1l-1-1zm167-13v-1 3-2zm-125-1 2-2-1 2-2 2 1-2zm-86-6h3l-1 1-2-1zm121-5 2-2-1 2-3 3 2-3zm-129 0 1-1c2-2 2-1 1 0l-2 1zm178-6-4-5 4 4 5 5-5-4zm-109-1c0-1 0-1 0 0v2-2zm65-10v-4 8-4zm-77-5v-2 4-2zm196-1c1-3 1-3 1-1v3c-1 1-1 0-1-2zm-138-9h7c2 0 1 1-3 1l-4-1zm-111-4v-1 2-1zm86 0h3l-1 1-2-1zm-106-3h4l-2 1-2-1zm-28-10-2-3 3 3 2 3-3-3zm107-3c-1-1-1-2 1 0l1 2-2-2zm159-10c-1-1-1-2 1 0l1 2-2-2zm14-1-2-3 2 2 3 2c0 1-1 1-3-1zm-209-1h3l-1 1-2-1zm11 0h2c1 1 0 1-1 1l-1-1zm-54-9v-4 8-4zm-38 0v-1 3-2zm49-2 1-1c2-2 2-1 1 0l-2 1zm269-1v-1 2-1zm-305-2v-2 4-2zm-13-4v-1 3-2zm238-5 1-1c2-2 2-1 1 0l-2 1zm-237-3c0-1 0-1 0 0v2-2zm-32-2 1-1c2-2 2-1 1 0l-2 1zm84-18 3-3-2 3-4 4 3-4zm-32-2v-1 3-2zm61-12h3l-1 1-2-1zm9-4v-1 2-1zm-67-6h2c1 1 0 1-1 1l-1-1zm152-68h9-9z"
			style="fill: #5f6260"
		/>
		<path
			d="M288 307c-2-1-5-2-6-5l-4-2c-4 0-8-3-8-7 0-7 9-8 13-1 1 2 1 2 3 2 5 0 9 1 14 3 8 5 10 4 10-1v-4h24v4c0 5 3 6 9 2l13-4 6-3c3-4 9-5 12-1 2 5-2 10-8 10-2 0-2 0-3 2-4 6-14 8-22 4-5-3-7-3-7 0v2h-12l-11-1-1-2c0-2-2-2-7 1-5 2-11 3-15 1zm19-23c-1-5 3-9 11-9 13-1 15-17 2-17-6 0-7 0-7 7l-2 4c-2 3-2 3-2 0 1-11-11-15-16-5l-1 2v-8c1-2 1-3-2-5-6-6-25-3-23 3v2l-2-1c-2-2-3-3-8-3-6 0-9-1-12-4-3 0-4-6-5-9-3-12 7-35 13-30v1c-1 0-3 2-3 5-2 6-1 6 5 1 3-2 3-2 0 4-2 3-2 4-4 4-8 2-7 17 2 21l6 1-1-3c-4-15 5-28 22-31 3 0 3-2-1-8-3-5-3-5 2-10 33-33 87-20 103 25 6 16 6 27 0 22l-2-1-1 1h-5l-1-1-1 1c-3 3-5 1-7-5-3-10-11-13-17-5-3 5-1 12 7 16 6 4 10 5 20 7 8 2 10 8 3 7h-2v4c1 1-1 2-3 2l-3 1c2 4 1 5-3 4h-2v3c1 8-16-2-24-14-1-2-2-2-3 1l-5 4c-4 2-4 4 0 7 3 2 4 5 2 9h-2c-2-7-12-9-16-2l-1 1-1-1c-4-3-8-2-9 2l-1 2zm3-29c4-3 2-5-9-12-16-10-23-10-30-2-3 3-2 3 3 2 8-2 14 0 22 7 7 6 11 7 14 5zm-47-18c1-1 1-5-1-5l-3 5c0 2 2 2 4 0zm-18-18v-2l-1 1c-2 2 0 3 1 1zm45 65-10-5c-7-4-12-5-16-4-3 1 2-4 4-5 5-2 9-1 15 3 8 6 13 4 14-3 1-5 2-7 5-6 4 1 1 13-4 18-3 2-5 3-8 2z"
			style="fill: #725f06; fill-opacity: 1; stroke-width: 0.469828"
		/>
	</symbol>
	<symbol id="NL" viewBox="0 0 640 480">
		<path fill="#21468b" d="M0 0h640v480H0z" />
		<path fill="#fff" d="M0 0h640v320H0z" />
		<path fill="#ae1c28" d="M0 0h640v160H0z" />
	</symbol>
	<symbol id="PL" viewBox="0 0 640 480">
		<g fill-rule="evenodd">
			<path fill="#fff" d="M640 480H0V0h640z" />
			<path fill="#dc143c" d="M640 480H0V240h640z" />
		</g>
	</symbol>
	<symbol id="PT" viewBox="0 0 640 480">
		<path fill="red" d="M256 0h384v480H256z" />
		<path fill="#060" d="M0 0h256v480H0z" />
		<g fill="#ff0" fill-rule="evenodd" stroke="#000" stroke-linecap="round" stroke-linejoin="round" stroke-width=".6">
			<path d="M340 306c-33-1-180-93-181-108l8-13c14 21 165 111 180 107l-8 14" />
			<path
				d="M165 183c-3 8 39 33 88 64 50 30 93 49 96 46l2-3-4 1c-14-4-49-20-93-47-43-26-81-50-87-61a6 6 0 0 1 0-3h-1l-1 3h0zm175 124h-3c-12-1-49-19-92-45-51-30-92-57-88-64l2-3v1c-4 12 82 61 87 64 50 31 92 49 96 44l-2 3z"
			/>
			<path d="M256 207c32 0 72-4 95-13l-5-8c-13 7-53 12-90 13-44-1-74-5-90-15l-4 9c28 12 57 14 94 14" />
			<path
				d="M353 194c-1 1-16 6-38 10a381 381 0 0 1-59 4 416 416 0 0 1-56-3c-23-4-35-9-40-11l1-2c13 5 25 8 39 10a412 412 0 0 0 56 4 392 392 0 0 0 58-4c23-4 35-9 37-11l2 3zm-5-8c-2 2-14 6-36 9a388 388 0 0 1-56 4c-22 0-40-1-53-3-22-3-34-8-38-10l1-2c4 2 15 6 37 10a385 385 0 0 0 53 3 384 384 0 0 0 56-4c21-3 33-8 35-10l1 3zm-198 60c20 11 64 16 106 16 38 0 87-5 106-15l-1-11c-5 9-58 18-105 17-47 0-91-7-106-16v9"
			/>
			<path
				d="M363 245v2c-3 3-20 8-42 12a434 434 0 0 1-66 4 400 400 0 0 1-62-4 155 155 0 0 1-44-12v-3c10 7 36 11 45 13a412 412 0 0 0 169-13zm0-9v2c-3 3-20 8-42 12a434 434 0 0 1-66 4 414 414 0 0 1-62-4 155 155 0 0 1-44-12v-3c10 7 36 11 45 13a408 408 0 0 0 61 4c27 0 49-2 65-4 16-3 38-9 43-12zm-107 68c-46 0-85-12-93-14l6 9a250 250 0 0 0 87 15c35-1 65-4 87-14l6-10c-15 7-64 14-93 14"
			/>
			<path
				d="M345 297a143 143 0 0 1-3 4c-10 4-26 8-33 9a296 296 0 0 1-53 5c-41-1-74-9-89-16l-2-2h1l2 1a287 287 0 0 0 88 14 307 307 0 0 0 88-14l1-1zm5-8a287 287 0 0 1-2 3c-5 2-20 6-41 9-14 2-23 4-51 4a347 347 0 0 1-94-13l-1-3a390 390 0 0 0 95 14c26 0 37-2 51-4 24-4 37-8 41-9a3 3 0 0 0 0-1l2-1z"
			/>
			<path
				d="M351 238c0 30-15 57-28 68a99 99 0 0 1-68 29c-30 0-58-20-66-28a101 101 0 0 1-28-68c2-33 15-55 34-71a100 100 0 0 1 64-23 98 98 0 0 1 71 36c12 15 18 32 21 57zm-95-103a106 106 0 0 1 106 105 106 106 0 1 1-212 0c0-58 48-105 106-105"
			/>
			<path d="M256 135a106 106 0 0 1 0 211 106 106 0 0 1 0-211zM153 240a103 103 0 1 0 206 0 103 103 0 0 0-206 0z" />
			<path d="M256 143a97 97 0 0 1 97 97 97 97 0 0 1-97 97c-53 0-97-44-97-97a97 97 0 0 1 97-97zm-94 97a94 94 0 1 0 94-94 95 95 0 0 0-94 94z" />
			<path d="M260 134h-9v212h9z" />
			<path d="M259 133h3v215h-3V133zm-9 0h3v215h-3V133z" />
			<path d="M362 244v-8l-7-6-36-9-52-6-63 4-45 10-9 7v8l23-10 54-9h53l38 4 27 7z" />
			<path
				d="M256 224c25 0 49 2 68 6 20 4 34 9 39 14v3c-6-7-25-12-39-15a377 377 0 0 0-137 0c-15 3-35 9-38 15v-3c1-4 16-10 37-14 19-4 44-6 70-6zm0-9a383 383 0 0 1 68 6c20 4 34 9 39 14v3c-6-7-25-12-39-15-19-4-43-6-68-6a376 376 0 0 0-69 6c-15 3-36 9-38 15v-3c1-4 17-10 37-14 19-4 44-6 70-6zm-1-46c40-1 74 5 90 13l5 10c-13-7-50-15-95-14-36 0-74 4-94 14l7-11c16-8 54-12 87-12"
			/>
			<path
				d="M256 177a354 354 0 0 1 61 4c16 3 32 7 34 10l2 3c-6-4-19-7-36-11s-39-4-61-4c-25 0-45 1-62 4a109 109 0 0 0-33 11l1-3c6-3 16-7 32-10 17-3 37-4 62-4zm0-9c21-1 43 1 59 4a96 96 0 0 1 31 10l2 4c-4-5-20-10-34-12-16-3-37-4-58-4a361 361 0 0 0-59 4 97 97 0 0 0-30 9l2-3c6-3 15-6 27-8a357 357 0 0 1 60-4zm52 116a276 276 0 0 0-52-4c-66 1-87 14-89 17l-5-8c16-12 52-18 94-18 22 1 41 2 57 5l-5 8"
			/>
			<path
				d="M256 279c18 0 36 1 53 4l-1 2c-16-3-34-4-52-4-25 0-49 2-70 8-7 2-18 7-19 10l-2-2c1-2 8-6 20-10 24-7 47-8 71-8zm0-9a327 327 0 0 1 58 5l-2 2a299 299 0 0 0-56-5c-24 0-50 2-73 9-7 2-21 7-21 10l-1-2c0-3 11-8 22-11 23-6 49-8 73-8z"
			/>
			<path d="m349 291-7 12-23-20-59-40-66-36-34-12 7-13 3-2 21 6 70 36 41 25 34 25 14 16z" />
			<path
				d="M159 196c6-4 50 15 96 43s90 60 86 66l-1 2h0v-3c-2-6-34-31-86-63-50-30-93-48-97-43l2-2zm192 94c4-7-37-38-88-68-52-30-90-47-97-42l-1 3s0 0 0 0l5-1c11 0 45 15 92 42 21 12 88 55 88 67l-1 2 2-2z"
			/>
		</g>
		<path
			fill="#fff"
			stroke="#000"
			stroke-width=".7"
			d="M193 252a63 63 0 0 0 18 44 63 63 0 0 0 45 19 63 63 0 0 0 45-19 63 63 0 0 0 18-44v-85H193Z"
		/>
		<path
			fill="red"
			stroke="#000"
			stroke-width=".5"
			d="M195 252a60 60 0 0 0 18 43 61 61 0 0 0 43 17 61 61 0 0 0 43-17 60 60 0 0 0 17-43v-82H195v82m97-57v57a35 35 0 0 1-11 26 36 36 0 0 1-25 10c-10 0-19-4-26-10a36 36 0 0 1-10-26v-58z"
		/>
		<g id="prefix__a" fill="#fff" transform="translate(0 26.7) scale(1.06667)">
			<path fill="#039" d="M233 202a8 8 0 0 0 2 6 7 7 0 0 0 5 2c2 1 4 0 5-2a8 8 0 0 0 3-6v-10h-15v10" />
			<circle cx="236.1" cy="195.7" r="1.5" />
			<circle cx="244.4" cy="195.7" r="1.5" />
			<circle cx="240.2" cy="199.7" r="1.5" />
			<circle cx="236.1" cy="203.9" r="1.5" />
			<circle cx="244.4" cy="203.9" r="1.5" />
		</g>
	</symbol>
	<symbol id="RO" viewBox="0 0 640 480">
		<g fill-rule="evenodd" stroke-width="1pt">
			<path fill="#00319c" d="M0 0h213v480H0z" />
			<path fill="#ffde00" d="M213 0h214v480H213z" />
			<path fill="#de2110" d="M427 0h213v480H427z" />
		</g>
	</symbol>
	<symbol id="RU" viewBox="0 0 640 480">
		<g fill-rule="evenodd" stroke-width="1pt">
			<path fill="#fff" d="M0 0h640v480H0z" />
			<path fill="#0039a6" d="M0 160h640v320H0z" />
			<path fill="#d52b1e" d="M0 320h640v160H0z" />
		</g>
	</symbol>
	<symbol id="SA" viewBox="0 0 640 480">
		<defs>
			<clipPath id="prefix__a" clipPathUnits="userSpaceOnUse">
				<path fill-opacity=".7" d="M-85 0h682v512H-85Z" style="stroke-width: 1" />
			</clipPath>
		</defs>
		<path
			fill="#165d31"
			d="M-128 0h768v512h-768Z"
			clip-path="url(#prefix__a)"
			style="fill-rule: evenodd"
			transform="translate(80) scale(.9375)"
		/>
		<path
			fill="#fff"
			d="M141 136c-1 10-2 37 14 29 0-6 5-27 5-10-2 16 22 21 14 39-1 19 13 2 8-8-3-12 0-26 15-19 17-2 5-25 8-36-14-8-15 8-7 15 5 16-12 8-9-3 2-8-10-21-10-6 1 8 2 15-1 2 2-7-8-29-11-12-1 9 11 23 0 29 4-9-4-36-11-15-1 6-7 22-10 8-1-4 1-11-5-13z"
			style="fill-rule: evenodd; stroke-width: 0.9375"
		/>
		<path fill="#fff" d="m173 182-30 14c3-10 19-26 30-14z" style="fill-rule: evenodd; stroke-width: 0.9375" />
		<path
			fill="#fff"
			d="M167 191c-12 17 9 43 27 31 11-3 14-29 19-26 2 21-22 41-41 32-11-3-9-33-15-12-4 18 16 29 31 24 18-4 36-22 32-41-1-19 28-3 32-20 1-12-4-6-11-5-6-3-14 11-19-3-7-10-8-29-2-38 0-13-20-18-14-1 1 15 9 31 4 45-13-18-37 16-15 19 21-8-2 23-14 16-14 0-7-19-14-21z"
			style="fill-rule: evenodd; stroke-width: 0.9375"
		/>
		<path
			fill="#fff"
			d="M235 150c9-5 27-27 11-31-9 5 2 20-12 22-7 4-15 13 1 9zm-91 61c-9 6-6 36 7 23-3-8-11-13-6-22 2-2-1-3-1-1zm241-14c-11-23-27-43-40-65 9-14-29-22-13-1 9 16 21 30 32 45-5-4 9 16 11 21 4 6 11 25 11 8l-1-8z"
			style="fill-rule: evenodd; stroke-width: 0.9375"
		/>
		<path
			fill="#fff"
			d="M361 236c14 15 32-9 34-23 1-17 0-35-3-52-7-14 9-31-7-41-11 7 1 29-1 42l4 52c-4 12-18 15-27 22zm109 0c-6 15 26 3 24-9 6-19 3-39 1-58-6-14 6-36-10-44-9 10 2 31 1 46 2 16 6 34 2 50-4 7-11 12-18 15z"
			style="fill-rule: evenodd; stroke-width: 0.9375"
		/>
		<path
			fill="#fff"
			d="M474 210c2-25-9-49-5-74 2-12-17-19-13-2 5 23 9 47 10 70 0 8-1 25 6 11l2-5zm-42-38c-13 0-17-21-5-19 6-12 13 7 4 11l1 8zm-68 45c3-26-7-53-2-80 1-11-21-24-14-5 7 32 9 64 8 96 5-1 7-6 8-11z"
			style="fill-rule: evenodd; stroke-width: 0.9375"
		/>
		<path
			fill="#fff"
			d="M487 203c-13-25-37-42-48-68 3-12-24-17-13-1 15 25 38 45 52 71 2 7 14 16 10 2l-1-4z"
			style="fill-rule: evenodd; stroke-width: 0.9375"
		/>
		<path fill="#165d31" d="M195 183c-3 11 11-5 0 0z" style="fill-rule: evenodd; stroke-width: 0.9375" />
		<path
			fill="#fff"
			d="M412 340c13 4 35-7 41 10 3 14-12 16-22 11-9 1-28 6-26-10-65-4-130-2-195 0-10 1-29-17-8-13 47 2 94-3 141-1 21 1 43 1 64 3-12-11 12-11 5 0zM257 127c-12 13 11 48 17 21 10-13 0 18 14 15 12 2 16-12 25-1 11 5 15-14 21-5 8-3 6-17-2-9-16-5 6-37-17-28-8 8 16 32-4 29-7-9 2-34-10-33-7 10 10 36-11 35-8-6 0-37-16-22-2 8-10 30-13 12 0-5 0-11-4-14z"
			style="fill-rule: evenodd; stroke-width: 0.9375"
		/>
		<path
			fill="#fff"
			d="M274 163c17-3 7 25 17 31 9-10 31-8 30-25 13-21 33 18 10 21-8 2-17 5-3 5 10-3 36 0 19 14-8 6-40 1-30 16 15 13-14 15-20 5s-19-12-22 1c-11 14-30 8-41 0-5 2-27 14-20 3 12-9 28-16 33-31 4 18 29-19 10-23-8-17 19-15 12 1 7 17-2 30-16 39-8 15 18 7 21-2 9-11 9-28 1-40-2-4-4-10-1-15zm-89-36c9 7 14-15 1-8-6 0-5 6-1 8z"
			style="fill-rule: evenodd; stroke-width: 0.9375"
		/>
		<path
			fill="#fff"
			d="M300 176c15 5 9-13 0-9-3-2-3 9 0 9zm68-20c10 7 14-15 1-8-6-1-4 5-1 8zm35 51c-12 9-2 37 13 31 3-9 15-27 23-11 24 1 17-30 18-45-1-15-8-29-3-44 1-9-16-24-13-6 3 19 6 39 7 59 5 12-5 33-16 16-14-5-16 35-28 15-2-5-2-10-1-15zm-33-88c11 2 0 30-1 9-3-3-7-10 1-9z"
			style="fill-rule: evenodd; stroke-width: 0.9375"
		/>
		<path
			fill="#fff"
			d="M414 211c1-23-4-46-7-69 11-5-12-32-10-11-2 24 11 47 9 72-1 8 4 28 8 8zm61-80c11 4-1 32-1 10-2-3-7-10 1-10zm-240 64c10 2-1 23 0 7-3-1-6-9 0-7z"
			style="fill-rule: evenodd; stroke-width: 0.9375"
		/>
		<path fill="#165d31" d="M310 205c9 5-13 9-6 17-18-1-12-30 6-17z" style="fill-rule: evenodd; stroke-width: 0.9375" />
		<path
			fill="#fff"
			d="M153 117c10 1-1 24-1 8-3-2-5-10 1-8zm89 31c-14 4 9 20 7 6-9 9 1-8-7-6zm27-34c-11 0-3 21 2 9-11 3 6-11-2-9zm21 4c-5 8 3 17 4 4 1-4 0-12-4-4zm133 68c4-6 27-19 15-4-3 2-21 18-15 4zm16-1c12 4-1 32-1 11-2-3-5-11 1-11zm-108 41c6-13 8 8 16 2 11 5-18 12-16-2zm128 5c-11 15 17 8 4-3 3-6-14 0-4 3z"
			style="fill-rule: evenodd; stroke-width: 0.9375"
		/>
		<path
			fill="#165d31"
			d="M331 178c-11 4-3-12 0 0zm-83-50c-11-4 5-8 0 0zm165 224h26c1 1 0 5-1 5l-7-1c0-3-7-2-7 0h-11v-4z"
			style="fill-rule: evenodd; stroke-width: 0.9375"
		/>
	</symbol>
	<symbol id="SK" viewBox="0 0 640 480">
		<path fill="#ee1c25" d="M0 0h640v480H0z" />
		<path fill="#0b4ea2" d="M0 0h640v320H0z" />
		<path fill="#fff" d="M0 0h640v160H0z" />
		<path fill="#fff" d="M233 371c-43-21-105-62-105-143 0-82 4-119 4-119h202s4 37 4 119-62 122-105 143z" />
		<path fill="#ee1c25" d="M233 360c-39-19-96-57-96-131s4-109 4-109h184s4 34 4 109c0 74-56 112-96 131z" />
		<path
			fill="#fff"
			d="M241 209c11 0 32 1 51-6l-1 15 1 14c-17-5-38-6-51-5v41h-16v-41c-12-1-33 0-50 5v-29c18 7 39 6 50 6v-26c-10 0-24 1-40 6v-29c16 5 30 6 40 6-1-17-6-37-6-37h28s-5 20-5 37c9 0 23-1 39-6v29a119 119 0 0 0-40-6v26z"
		/>
		<path
			fill="#0b4ea2"
			d="M233 263c-20 0-30 28-30 28s-6-13-23-13c-11 0-19 10-24 19 20 31 52 51 77 63 25-12 57-32 77-63-5-9-13-19-24-19-16 0-22 13-22 13s-11-28-31-28z"
		/>
	</symbol>
	<symbol id="SI" viewBox="0 0 640 480">
		<defs>
			<clipPath id="prefix__a"><path fill-opacity=".7" d="M-15 0h683v512H-15z" /></clipPath>
		</defs>
		<g fill-rule="evenodd" stroke-width="1pt" clip-path="url(#prefix__a)" transform="translate(14.1) scale(.9375)">
			<path fill="#fff" d="M-62 0H962v512H-62z" />
			<path fill="#d50000" d="M-62 341H962v171H-62z" />
			<path fill="#0000bf" d="M-62 171H962v170H-62z" />
			<path
				fill="#d50000"
				d="M228 93c-4 62-6 95-15 111-10 17-20 29-60 44-40-15-49-27-60-44-9-16-11-49-15-111l6-2 27-8c9-2 17-4 42-4s33 2 42 4l27 8 6 2z"
			/>
			<path
				fill="#0000bf"
				d="M223 91c-4 62-7 90-12 103-10 23-25 36-58 48-33-12-48-25-58-48-5-13-8-42-12-103l28-8c9-2 17-4 42-5 25 1 33 3 42 5a284 284 0 0 1 28 8z"
			/>
			<path fill="#ffdf00" d="m153 110 2 3 7 2-5 2 4 3-6 1-2 4-2-4-6-1 4-3-4-2 7-1 1-4z" />
			<path
				fill="#fff"
				d="m208 180-4-3-2-5-6-5-3-4-5-5-3-5-3-2-1-2-5 4-3 5-3 3-4-3-3-5-10-18-10 18-3 5-4 3-3-3-3-5-5-4-1 2-3 2-3 5-5 5-3 4-6 5-2 5-4 3a66 66 0 0 0 18 36 107 107 0 0 0 37 20 104 104 0 0 0 37-20c5-6 16-19 18-36z"
			/>
			<path
				fill="#ffdf00"
				d="m169 84 2 4 7 1-5 2 5 3-6 1-2 4-2-4-6-1 4-3-5-2 7-1 2-4zm-33 0 2 4 7 1-4 2 4 3-6 1-2 4-2-4-6-1 4-3-5-2 7-1 2-4z"
			/>
			<path
				fill="#0000bf"
				d="M200 203h-15l-8-4h-9l-9 4h-6l-6-1-9-3h-9l-8 4h-15l-4-6h1l11 2 7-1 8-4h9l9 4 6 1 7-1 8-4h9l8 4 7 1 11-2-3 6zm-87 10 8-1 8-4h9l9 4 6 1 6-1 9-4h9l8 4 8 1 5-6-6 1-7-1-8-4h-9l-8 4-7 1-6-1-8-4h-10l-8 4-7 1-5-1 4 5z"
			/>
		</g>
	</symbol>
	<symbol id="ZA" viewBox="0 0 640 480">
		<defs>
			<clipPath id="prefix__a"><path fill-opacity=".7" d="M-72 0h683v512H-72z" /></clipPath>
		</defs>
		<g clip-path="url(#prefix__a)" transform="translate(67.4) scale(.93748)">
			<g fill-rule="evenodd" stroke-width="1pt">
				<path d="M-72 408V104l226 152-226 152z" />
				<path fill="#000c8a" d="m82 512 254-170h360v170H82z" />
				<path fill="#e1392d" d="M66 0h630v171H336S69-2 66 0z" />
				<path fill="#ffb915" d="M-72 64v40l226 152-226 152v40l285-192L-72 64z" />
				<path fill="#007847" d="M-72 64V0h95l301 204h372v104H324L23 512h-95v-64l285-192L-73 64z" />
				<path fill="#fff" d="M23 0h59l254 171h360v33H324L23 0zm0 512h59l254-170h360v-34H324L23 512z" />
			</g>
		</g>
	</symbol>
	<symbol id="KR" viewBox="0 0 640 480">
		<defs>
			<clipPath id="prefix__a"><path fill-opacity=".7" d="M-96 0h683v512H-96z" /></clipPath>
		</defs>
		<g fill-rule="evenodd" clip-path="url(#prefix__a)" transform="translate(89.8 .4) scale(.9375)">
			<path fill="#fff" d="M-96 0h683v512H-96Z" />
			<g transform="rotate(-56.3 361.6 -101.3) scale(10.66667)">
				<g id="prefix__c"><path id="prefix__b" d="M-6-26H6v2H-6Zm0 3H6v2H-6Zm0 3H6v2H-6Z" /></g>
				<path stroke="#fff" d="M0 17v10" />
				<path fill="#cd2e3a" d="M0-12a12 12 0 0 1 0 24Z" />
				<path fill="#0047a0" d="M0-12a12 12 0 0 0 0 24A6 6 0 0 0 0 0Z" />
				<circle cy="-6" r="6" fill="#cd2e3a" />
			</g>
			<g transform="rotate(-123.7 191.2 62.2) scale(10.66667)"><path stroke="#fff" d="M0-23v3m0 37v4m0 3v3" /></g>
		</g>
	</symbol>
	<symbol id="ES" xml:space="preserve" viewBox="0 0 640 480">
		<path fill="#aa151b" d="M0 0h640v480H0Z" />
		<path fill="#f1bf00" d="M0 120h640v240H0Z" />
		<path
			d="m152 297 1-1v-2 2l-1 1zm-2-1-1-1v-1l1 1v2zm18 0h3-4 1zm-18-4 1-1v1l-1 1zm8 0-1-1 1 1h1v1zm22 0h1l-1 1h-1zm-24-2-1-1 1 1h1v1zm-5-10v-1l1 1-1 1v-1zm22-31-2-1v-1h4v-1h-3l-1-1-1-1v-2h-2v3h-1v1h-4l-1-1v-3h1l1 1 1 1h1v-2l-1-1 1-1v-1h3v-1h-1l-1-1-2-1-2-1h-4l-1-1v-1l1-1 1-1v1h1v1h2l1-1v-1l-1-1-1-2v-3l-1-1v-1h1l1-1h1v4l1 1 1 1 2-1 1-1h-2v-1h1v-1l-1-1v-2h5l1 2 2 2v2l-1 1-1 2-1 1v1l-1 1 2 3 1 2 1 2 1 1v1h1l1-1h1l-1-2v-1l-2-3-1-4v-3l1-1v-1h1l1-1 1 1 1 1v3h-1v-4h-2l-1 1v1l-1 1 1 2v2l2 3 1 3v3l-1 1h-3v1l1 1h2v2h-1l-1 1v1l-1 1h-1z"
			style="fill: #ec70a8; stroke-width: 0.419125"
		/>
		<path
			d="M112 300v-5 9zm107 0v-5 9zm-132-8v-4h22v8H87Zm43-16v-21h7v41h-7zm64 16v-4h21v8h-21Zm-51 1 1-1v-26h1l1 1 2 1h3v14l-1 2-1 2-1 2-1 2-2 1-1 1-2 2zm-20-1h-1l-2-2-1-3-1-1-1-2-1-3v-26h7v37h1l1 1h-1l-1-1zm41 0-2-1-2-2-2-1-1-2-2-2v-1l-1-1 1-7v-7l1-1h1v6h10l-3-4-4-4 1-1 4 4 4 4v-11h-6v-1l1-1h19v4l1 3v17l-2 3-2 2-2 1-2 2-2 1h-8zm5-9v-7h1v14h2l2-1h1l1-1 1-1 2-2-4-4-5-5h1v-1l5 5 4 4 1-1 1-1v-8h-11v-1l-1-1h-2v1l-1 1h-10v6l-1 2 1 1 1 1 5-4 4-5h1v1l-4 5-5 4 1 1 2 1 1 2h2l1 1h3v-7zm13-13-1-3v-4l-5 5-5 5h11v-3zm-7-3 5-6h-10v11zm12 13v-1 2-1zM87 268v-4 8zm110-3h1v1zm-48-4 1 1zm4-1 1-1v2h-1zm-2-3h1-2zm-6-2-1-1v-2h1l1-1h2l1 1v3l-1 1h-2zm3 0 1-1v-2h-1v-1h-2l-1 1v3h3zm5 0v-1l1 1h1-1zm3 0h1l1-1-1 1h-1zm2-2v-1 2-1zm-5-1 1-1h1-1l-1 1zm2-1 1-1v1h-1zm-31-4v-2h2v-11h-2v-6h3l-1-2v-2h1v1h1v-1h1v1h1v-1h1v2l-1 2h2v-4l-1-4h1v1l1-1h1v1-1h1v8h1v-4h1v1l1-1h1v1l1-1h1l-1 2v2h3v6h-3v11h4v1l-2 2-1 2h-6v-5h-1l-1-1v1h-1v5h-8zm6-9v-2l-1-1v1h-1v4h2zm9 0v-2h-1v-1l-1 1h-1v4h3zm-52 5v-4 8zm87-20-2-2 1-1v-1h1v2h1l1 1-1 1 1 1h1l-1 1h-1zm-85 0h-2v-8h21l1 4v4h-3l-3 1h-6l-6-1zm107 0h-2v-8h21v8h-2l-3 1h-6l-6-1zm-71-9v-2h1l1 1v-3h-2v-3h54v-1 1l-1 2v1h-2v3l1-1h1v3h-53v-1zm7-3v-1h-2v1h-1l1 1v1h2zm8 0v-1h-5l-1 1v1l1 1h5zm5 0v-1h-2v3h2zm9 0v-1h-6v3h6zm4 0v-1h-2v3h2zm9 0v-1h-6v1h-1l1 1v1h6zm4 0v-1h-2v3h2zm39 3v-1 2-1zm-10 0v-1 2-1zm-108-2v-1l1 1v1h-1v-1zm118 0v-1 1h1l-1 1v-1zm-107 0v-1l1 1h-1zm107-2 1-1v2h-1v-1zm-106 0v-1 1zm19-4-1-1 1 1 1 1zm57 0 2-1 1-2-1 2-1 1h-1zm-60-2-1-2 1 1 1 1v1zm-24-1h5-6 1zm37 0h1-2 1zm18 0h1-1zm18 0h1-1zm34 0h5-7 2zm-36 0v-1l1 1h-1zm4 0 1-1v1h-1zm-41-1-1-1 1 1h1v1zm6 0 1-1h1l-1 1-1 1zm12 0-1-1 1 1 1 1zm36 1v-1l1-1 2-1-1 1-2 2zm-67-1v-1h1v1zm49 0-1-1h1v1zm-37-3v-1 3zm9 0v-1 3zm18 0-1-2 1 1v3zm9 0v-1 3zm9 0v-1 3zm-60 0-2-1v-2l-1-2v-7l1-1 1-2 2-2 2-1 1-1h2l2-1h5l2 1 1-2 1-1 1-2 2-1 2-1 2-1 3-1h6l1 1 1 1v-1 1l1 1h3v-1l1-1v1l1-1 2-1h6l2 1h2l1 1 1 1 1 1 2 1 1 2 1 2 1-1h6l1 1h2l2 1 2 1 1 2 2 2 1 1v7l-1 2-1 1-1 1-1 2h-1v-1l-3-2-2-3v-1l1-1v-2l-1-1-1-1h-1l-1-1h-2l-1 1-1 1v1l-2-2-3-1-3-1-3-1v-1h1v-2l-1-1v-1h-2l-1-1h-2l-1 1h-1v1l-1 1v1h-9v-1l-1-1-1-1h-1l-1-1h-2l-1 1h-1l-1 1v3l1 1-3 1-4 1-2 1-3 2 1-1-1-1h-1l-1-1h-1l-1 1h-2v1l-1 1v2l1 1v1l-3 3-3 2 1 1h-1zm33-1v-1l1-1 1-1v1h1l-2 1-1 1zm-11-2-1-1 1 1 2 1v1h-1zm30 1 1-1-1 1-1 1zm-33-2h2-3zm18 0h2-3zm18 0h2-3zm-47-2h1v-1 1h-1zm58 0-1-1 1 1h1-1zm-35-9v-1l1 1h-2zm12 0 1-1v1h1-2zm-7-16 1-2h-2v-1h2v-2h1v2h1v1h-1v3h-2z"
			style="fill: #cdac02; stroke-width: 0.419125"
		/>
		<path
			d="m1024 758 1-10h67v19h-68zm255 0 1-10h67v19h-68zm-101-83-3-1-5-5-5-5-2-4-1-4v-6l1-5 2-4 5-5 5-5 4-1 4-1h7l4 1 4 1 5 5 5 5 1 4 1 5v6l-1 4-1 4-5 5-5 5-4 2-4 1h-8zm12-8 2-1v-7l-1-1-2-2h-6l-2 2-2 2v4l2 2 3 3h4zm-12-14 2-1 1-3 1-2-1-3-1-2-2-1-3-1-2 1-3 1-1 2-1 3 1 2 1 3 2 1 3 1 3-1zm22-2 2-2v-5l-2-2-2-2h-5l-2 2-2 2v4l3 2 2 3h4zm-61-19v-4l3-1 2-1 2 1 2 1v9h-9zm-9-21v-5l2-1 1-1 2 1 1 1v10h-6zm20 0v-5l2-1 1-1 2 1 1 1v10h-6zm33-155-2-1v-6l1-1 2-1h5l1 1 1 1v5l-1 2-1 1h-4l-2-1z"
			style="fill: #073ce7"
			transform="translate(-345.814 -17.717) scale(.41912)"
		/>
		<path
			d="M91 304h21-28zm107 0h21-28zm-47-2v-1h-4l-1-1h-2l-1-1-1-1v-1h5l1 1 1 1 1 1h1v-2h1v1h1l1-1 1-1h6l-2 2-1 1h-2l-1 1h-3v2h-1v-1zm17-27h-1v-2h1v-1h2l1 1v2l-1 1h-2zm-15-13v-1h1l-1 1zm-8-7-1-1 1 1v1zm3 1 1-1v-1 1l-1 1zm7 0 1-1v1h1-2zm-11-4 1-1h1-1v1h-1zm4-1h1v1zm-15-2h3-5zm1-37v-1l1-1h5v3h-5zm27 0-1-1h1v-1h6v3h-6zm-12-39h2v1h-1zm0-1v-1 2zm5 0v-1 2zm-3-3h1-2z"
			style="fill: #0b8d6d; stroke-width: 0.419125"
		/>
		<path
			d="M150 296v-3l1-1h1v1l1 1v2h-1v1h-1l-1-1zm14-1h-2l-1-1-2-1-1-2-2-1-1-2-1-2-1-2-1-3-1-7v-6h-3l-2-1-1-1h-1v26l-1 1-2 1-1 1h-3v-40h-7v40h-2l-2-1-2-1-1-1v-37h-7v-7H87v-8h29v-25h35v28l3 1h2l2 2 2 1 2 2 1 2 1 2v2h23v24l-1 2v3l-2 3-1 2-2 2-1 2-3 1-3 1-4 1h-5l-1-1zm10-3 2-1 2-2 2-1 2-2 2-3v-17l-1-3v-4h-19l-1 1v1h6v11l-4-4-4-4-1 1 4 4 3 4h-10v-6h-1l-1 1v7l-1 7 1 1v1l2 2 1 2 2 1 2 2 2 1h10zm-9-3h-2l-1-2-2-1-1-1 5-5 5-4v14h-3zm5-6v-7l1-1v-1h11v8l-1 1-1 1-4-4-5-5v1h-1l5 5 4 4-2 2-1 1-1 1h-1l-2 1h-2v-7zm-13 0-1-1 1-2v-6h10v1l-4 5-5 4zm19-15 5-5v4l1 3v3h-11l5-5zm-6-1v-6h10l-5 6-5 5zm-15-2h2l2-2 1-2 1-2v-6l-1-2-1-2-2-2-2-1h-7l-2 1-2 2-2 2v2l-1 2v2l1 2v2l2 2 2 2h2l1 1h4l2-1zm-13-17 2-2v-1h-4v-11h3v-6h-3v-2l1-2h-1l-1 1v-1h-1l-1 1v-1h-1v4h-1v-8h-1v1-1h-1l-1 1v-1h-1l1 4v4h-2l1-2v-2h-1v1h-1v-1h-1v1h-1v-1h-1v2l1 2h-3v6h2v11h-2v5h17zm-55 20v-4l11-4 10-4h1v8l-11 3-10 4h-1v-3zm117-1-10-3v-8h1l5 2 6 2 5 2 4 2v7h-1zm-17-23v-4h28v8h-28zm-94-30v-1l-1-3v-5l1-1 1-1h7l1 1h1v2l1 1-1 4v4H93zm106-3v-5l1-1 1-2h7l1 2 1 1 1 1v1l-1 3v4h-10zm-74 1-1-1h1v-1h2v3h-2zm23 0v-2h6v3h-6zm28 0v-2h2v3h-2zm-56-9-5-3 3-3 3-3 2-1 2-2 4-2 3-2 4-1 3-1 3-1h19l2 1 4 1 3 1 4 2 4 2 2 2 2 1 3 3 2 3-4 3-5 4h-54l-4-4zm15 0h1l1-1 1-2v-2l-1-1-1-2h-5l-1 2-1 1v3l1 1 1 1h4zm18 0 2-1v-1l1-1v-2l-1-1-1-1-2-1h-2l-1 1h-1l-1 1v4l1 1 1 1h4zm20-1 1-1v-3l-1-1-1-2h-5l-1 2-1 1v3l1 1 1 1h5z"
			style="fill: #ac1418; stroke-width: 0.419125"
		/>
		<path
			d="m147 304-4-1-4-1h-3l-4-2-4-2-3-3-3-2h1v-1l3 2 3 2h5l4-1 3-1 3-1 2-2 1-2 2-2 1-2 1-3v-2l1 2 1 3 1 2 1 2 2 2 2 2 3 1 2 1 3 1h5l3-1 3-1 2-2-2 3-3 3-4 2-4 2h-4l-3 1h-3l-4 1h-2zm5-2v-1h3l1-1h2l1-1 2-2h-5l-2 1-2 1v-1l1-1v-4l-1-1h-1l-1 1-1 2 1 1v1h1v3h-1l-1-1-1-1-1-1h-5v1l1 1 1 1h2l1 1h4v2h1v-1zm-61-23v-9l4-1 4-2 3-1 3-1v23H91zm106-2v-11l1-1 7 3 7 2v18h-15zM91 255v-7h7l7-1v10l-5 2-4 1-3 1-2 1zm114 5-6-3h-1l-1-1 1-4v-4h14v14l-7-2zm-41-6v-1l-1-2-1-2-2-2-2-2-2-1-2-1h-3v-28h36v40h-23zm12-5v-1l1-1h1v-2h-2l-1-1v-1h3l1-1v-3l-1-3-2-3v-2l-1-2 1-1v-1l1-1h2v4h1v-3l-1-1-1-1-1 1h-1v1l-1 1v3l1 4 2 3v1l1 2h-1l-1 1h-1v-1l-1-1-1-2-1-2-2-3 1-1v-1l1-1 1-2 1-1v-2l-1-2-2-2 2 2 1 2h1l1-1h-1l-1-1 1-1-1-1h-1v-2h-1v1l-1 1h-5v2l1 1v1h-1v1h2l-1 1-2 1-1-1-1-1v-4h-1l-1 1h-1v1l1 1v3l1 2 1 1v1l-1 1h-2v-1h-1v-1l-1 1-1 1v1l1 1h4l2 1 2 1 1 1h1v1h-3v1l-1 1 1 1v2h-1l-1-1-1-1h-1v3l1 1h4l1-1v-3h2v2l1 1 1 1h3v1h-4v1l2 1 1 1h1l1-1zm-85-10v-15h14v16H91v-1zm107 0h-1v-15h15v15h-7l-7 1v-1zm-68-27-1-1h1v-1h2v3h-2zm13 0v-2h2v3h-2zm13 0v-2h2v3h-2zm13 0v-2h2v3h-2z"
			style="fill: #ccc9c7; stroke-width: 0.419125"
		/>
	</symbol>
	<symbol id="SE" viewBox="0 0 640 480">
		<path fill="#005293" d="M0 0h640v480H0z" />
		<path fill="#fecb00" d="M176 0v192H0v96h176v192h96V288h368v-96H272V0h-96z" />
	</symbol>
	<symbol id="CH" viewBox="0 0 640 480">
		<g fill-rule="evenodd" stroke-width="1pt">
			<path fill="red" d="M0 0h640v480H0z" />
			<g fill="#fff">
				<path d="M170 195h300v90H170z" />
				<path d="M275 90h90v300h-90z" />
			</g>
		</g>
	</symbol>
	<symbol id="TR" viewBox="0 0 640 480">
		<g fill-rule="evenodd">
			<path fill="#e30a17" d="M0 0h640v480H0z" />
			<path fill="#fff" d="M407 248c0 66-55 119-122 119s-122-53-122-120 55-119 122-119 122 53 122 119z" />
			<path fill="#e30a17" d="M413 248a97 97 0 0 1-195 0c0-54 44-96 98-96s97 42 97 95z" />
			<path fill="#fff" d="m431 192-1 44-42 11 41 15-1 40 27-32 40 14-23-34 28-34-43 12-26-37z" />
		</g>
	</symbol>
	<symbol id="GB" viewBox="0 0 640 480">
		<path fill="#012169" d="M0 0h640v480H0z" />
		<path fill="#FFF" d="m75 0 244 181L562 0h78v62L400 241l240 178v61h-80L320 301 81 480H0v-60l239-178L0 64V0h75z" />
		<path
			fill="#C8102E"
			d="m424 281 216 159v40L369 281h55zm-184 20 6 35L54 480H0l240-179zM640 0v3L391 191l2-44L590 0h50zM0 0l239 176h-60L0 42V0z"
		/>
		<path fill="#FFF" d="M241 0v480h160V0H241zM0 160v160h640V160H0z" />
		<path fill="#C8102E" d="M0 193v96h640v-96H0zM273 0v480h96V0h-96z" />
	</symbol>
	<symbol id="US" viewBox="0 0 640 480">
		<g fill-rule="evenodd">
			<g stroke-width="1pt">
				<path fill="#bd3d44" d="M0 0h912v37H0zm0 74h912v37H0zm0 74h912v37H0zm0 73h912v38H0zm0 75h912v36H0zm0 73h912v37H0zm0 74h912v37H0z" />
				<path fill="#fff" d="M0 37h912v37H0zm0 74h912v37H0zm0 74h912v37H0zm0 74h912v37H0zm0 73h912v37H0zm0 74h912v37H0z" />
			</g>
			<path fill="#192f5d" d="M0 0h365v259H0z" />
			<path
				fill="#fff"
				d="m30 11 4 10h10l-8 7 3 10-9-6-8 6 3-10-9-7h11zm61 0 3 10h11l-8 7 3 10-9-6-9 6 4-10-9-7h11zm61 0 3 10h11l-9 7 4 10-9-6-9 6 4-10-9-7h11zm61 0 3 10h11l-9 7 4 10-9-6-9 6 4-10-9-7h10zm61 0 3 10h11l-9 7 3 10-8-6-9 6 3-10-8-7h10zm60 0 4 10h11l-9 7 3 10-9-6-8 6 3-10-9-7h11zM61 37l3 10h11l-9 6 3 11-8-7-9 7 3-11-8-6h11zm61 0 3 10h11l-9 6 3 11-8-7-9 7 3-11-8-6h10zm60 0 4 10h11l-9 6 3 11-9-7-8 7 3-11-9-6h11zm61 0 4 10h10l-8 6 3 11-9-7-8 7 3-11-9-6h11zm61 0 3 10h11l-9 6 4 11-9-7-9 7 4-11-9-6h11zM30 63l4 10h10l-8 6 3 10-9-6-8 7 3-11-9-6h11zm61 0 4 10h10l-8 6 3 10-9-6-8 7 3-11-9-6h11zm61 0 3 10h11l-9 6 4 10-9-6-9 6 4-10-9-6h11zm61 0 3 10h11l-9 6 3 10-8-6-9 6 4-10-9-6h10zm61 0 3 10h11l-9 6 3 10-8-6-9 6 3-10-8-6h10zm60 0 4 10h10l-8 6 3 10-9-6-8 6 3-10-9-6h11zM61 89l3 10h11l-9 6 4 10-9-6-9 6 3-10-8-6h11zm61 0 3 10h11l-9 6 3 10-8-6-9 6 3-10-9-6h11zm60 0 4 10h10l-8 6 3 10-9-6-8 6 3-10-9-6h11zm61 0 4 10h10l-8 6 3 10-9-6-8 6 3-10-9-6h11zm61 0 3 10h11l-9 6 4 10-9-6-9 6 4-10-9-6h11zM30 115l4 10h10l-8 6 3 10-9-6-8 6 3-10-9-6h11zm61 0 3 10h11l-8 6 3 10-9-6-9 6 4-10-9-6h11zm61 0 3 10h11l-9 6 4 10-9-6-9 6 4-10-9-6h11zm61 0 3 10h11l-9 6 3 10-8-6-9 6 4-10-9-6h10zm61 0 3 10h11l-9 6 3 10-8-6-9 6 3-10-8-6h10zm60 0 4 10h10l-8 6 3 10-9-6-8 6 3-10-9-6h11zM61 140l3 11h11l-9 6 4 10-9-6-9 6 3-10-8-6h11zm61 0 3 11h11l-9 6 3 10-8-6-9 6 3-10-8-6h10zm60 0 4 11h11l-9 6 3 10-9-6-8 6 3-10-9-6h11zm61 0 4 11h10l-8 6 3 10-9-6-8 6 3-10-9-6h11zm61 0 3 11h11l-9 6 4 10-9-6-9 6 4-10-9-6h11zM30 166l4 10h10l-8 7 3 10-9-6-8 6 3-10-9-7h11zm61 0 3 10h11l-8 7 3 10-9-6-9 6 4-10-9-7h11zm61 0 3 10h11l-9 7 4 10-9-6-9 6 4-10-9-7h11zm61 0 3 10h11l-9 7 3 10-8-6-9 6 4-10-9-7h10zm61 0 3 10h11l-9 7 3 10-8-6-9 6 3-10-8-7h10zm60 0 4 10h10l-8 7 3 10-9-6-8 6 3-10-9-7h11zM61 192l3 10h11l-9 6 4 11-9-7-9 7 3-10-8-7h11zm61 0 3 10h11l-9 6 3 11-8-7-9 7 3-10-8-7h10zm60 0 4 10h11l-9 6 3 11-9-7-8 7 3-10-9-7h11zm61 0 4 10h10l-8 6 3 11-9-7-8 7 3-10-9-7h11zm61 0 3 10h11l-9 6 4 11-9-7-9 7 4-10-9-7h11zM30 218l4 10h10l-8 6 3 11-9-7-8 7 3-11-9-6h11zm61 0 3 10h11l-8 6 3 11-9-7-9 7 4-11-9-6h11zm61 0 3 10h11l-8 6 3 11-9-7-8 7 3-11-9-6h11zm61 0 3 10h11l-9 6 3 11-8-7-9 7 4-11-9-6h10zm61 0 3 10h11l-9 6 3 11-8-7-9 7 3-11-8-6h10zm60 0 4 10h10l-8 6 3 11-9-7-8 7 3-11-9-6h11z"
			/>
		</g>
	</symbol>
</svg>
